<?xml version="1.0" standalone="no"?>
<!DOCTYPE svg PUBLIC "-//W3C//DTD SVG 20010904//EN"
 "">
<svg version="1.0" xmlns="http://www.w3.org/2000/svg"
 width="300.000000pt" height="300.000000pt" viewBox="0 0 300.000000 300.000000"
 preserveAspectRatio="xMidYMid meet">
<metadata>
Created by potrace 1.10, written by Peter Selinger 2001-2011
</metadata>
<g transform="translate(0.000000,300.000000) scale(0.100000,-0.100000)"
fill="#000000" stroke="none">
<path d="M1324 2306 c-261 -60 -481 -245 -584 -492 -49 -119 -63 -199 -57
-349 3 -108 9 -144 31 -210 92 -269 269 -446 541 -542 75 -26 90 -28 245 -28
155 0 170 2 245 28 274 97 463 289 547 557 20 65 23 95 23 230 0 135 -3 165
-23 230 -85 269 -275 463 -547 556 -69 23 -99 28 -220 30 -94 3 -160 -1 -201
-10z m362 -56 c352 -90 584 -388 584 -750 0 -434 -336 -770 -770 -770 -434 0
-770 336 -770 770 0 360 231 658 580 749 105 28 270 28 376 1z"/>
<path d="M1478 2188 c-8 -21 2 -38 22 -38 19 0 30 17 23 38 -3 6 -13 12 -23
12 -10 0 -20 -6 -22 -12z"/>
<path d="M1351 2176 c-16 -19 -6 -36 20 -36 15 0 20 6 17 22 -4 27 -21 33 -37
14z"/>
<path d="M1617 2183 c-15 -14 -7 -43 12 -43 26 0 36 17 21 35 -14 16 -23 19
-33 8z"/>
<path d="M1227 2143 c-4 -3 -7 -15 -7 -25 0 -23 38 -25 47 -2 8 21 -24 43 -40
27z"/>
<path d="M1736 2135 c-8 -22 1 -35 25 -35 15 0 20 6 17 22 -4 27 -33 36 -42
13z"/>
<path d="M1110 2074 c-10 -11 -10 -17 0 -28 15 -19 40 -10 40 14 0 24 -25 33
-40 14z"/>
<path d="M1863 2083 c-18 -6 -16 -40 1 -46 8 -3 20 1 27 9 10 12 9 18 -2 28
-8 8 -20 12 -26 9z"/>
<path d="M1002 1978 c2 -15 10 -23 23 -23 30 0 27 39 -3 43 -20 3 -23 0 -20
-20z"/>
<path d="M1953 1984 c-3 -8 -1 -20 5 -26 16 -16 42 -2 42 22 0 24 -38 28 -47
4z"/>
<path d="M923 1889 c-15 -15 -5 -39 17 -39 22 0 32 24 17 39 -6 6 -14 11 -17
11 -3 0 -11 -5 -17 -11z"/>
<path d="M2043 1889 c-15 -15 -5 -39 17 -39 22 0 32 24 17 39 -6 6 -14 11 -17
11 -3 0 -11 -5 -17 -11z"/>
<path d="M1543 1825 c-160 -17 -207 -26 -223 -40 -19 -17 -20 -31 -20 -222 0
-111 -2 -203 -4 -203 -3 0 -16 4 -29 9 -35 14 -92 -4 -117 -36 -13 -17 -20
-41 -20 -69 0 -112 143 -155 201 -60 17 28 19 53 19 227 l0 197 43 6 c23 3 89
10 147 16 58 5 124 13 147 16 l42 5 0 -147 c1 -135 0 -146 -17 -139 -82 36
-162 -17 -162 -106 0 -22 10 -41 34 -65 29 -29 41 -34 81 -34 40 0 51 5 76 31
l29 31 0 288 c0 159 3 295 6 304 7 19 25 20 -233 -9z m187 -69 c0 -33 -2 -35
-42 -40 -44 -6 -322 -36 -333 -36 -3 0 -5 17 -3 38 l3 37 145 16 c80 9 164 17
188 18 42 1 42 1 42 -33z m-21 -433 c48 -60 -32 -130 -89 -78 -26 23 -25 60 0
85 28 28 64 25 89 -7z m-435 -14 c31 -25 34 -61 6 -89 -35 -35 -85 -20 -102
30 -8 24 9 60 34 70 32 12 32 12 62 -11z"/>
<path d="M854 1769 c-8 -14 21 -43 35 -35 6 4 11 16 11 27 0 21 -34 27 -46 8z"/>
<path d="M2100 1761 c0 -27 19 -36 37 -18 18 18 9 37 -18 37 -12 0 -19 -7 -19
-19z"/>
<path d="M821 1646 c-16 -19 -6 -36 20 -36 15 0 20 6 17 22 -4 27 -21 33 -37
14z"/>
<path d="M2147 1653 c-15 -14 -7 -43 12 -43 26 0 36 17 21 35 -14 16 -23 19
-33 8z"/>
<path d="M813 1523 c-7 -3 -13 -13 -13 -23 0 -19 17 -30 38 -23 6 3 12 13 12
23 0 19 -17 30 -37 23z"/>
<path d="M2163 1523 c-7 -3 -13 -13 -13 -23 0 -19 17 -30 38 -23 6 3 12 13 12
23 0 19 -17 30 -37 23z"/>
<path d="M814 1379 c-8 -14 21 -43 35 -35 19 12 13 46 -8 46 -11 0 -23 -5 -27
-11z"/>
<path d="M2140 1371 c0 -27 19 -36 37 -18 18 18 9 37 -18 37 -12 0 -19 -7 -19
-19z"/>
<path d="M861 1256 c-16 -19 -6 -36 20 -36 15 0 20 6 17 22 -4 27 -21 33 -37
14z"/>
<path d="M2107 1263 c-15 -14 -7 -43 12 -43 26 0 36 17 21 35 -14 16 -23 19
-33 8z"/>
<path d="M917 1136 c-9 -22 19 -42 37 -26 19 15 10 40 -14 40 -10 0 -20 -6
-23 -14z"/>
<path d="M2037 1136 c-9 -22 19 -42 37 -26 19 15 10 40 -14 40 -10 0 -20 -6
-23 -14z"/>
<path d="M1007 1044 c-4 -4 -7 -16 -7 -26 0 -14 6 -19 23 -16 14 2 22 10 22
23 0 20 -25 32 -38 19z"/>
<path d="M1954 1036 c-8 -21 3 -36 27 -36 15 0 20 6 17 22 -4 27 -35 37 -44
14z"/>
<path d="M1110 954 c-10 -11 -10 -17 0 -28 15 -19 40 -10 40 14 0 24 -25 33
-40 14z"/>
<path d="M1863 963 c-18 -6 -16 -40 1 -46 8 -3 20 1 27 9 10 12 9 18 -2 28 -8
8 -20 12 -26 9z"/>
<path d="M1220 881 c0 -27 19 -36 37 -18 18 18 9 37 -18 37 -12 0 -19 -7 -19
-19z"/>
<path d="M1734 889 c-8 -14 21 -43 35 -35 19 12 13 46 -8 46 -11 0 -23 -5 -27
-11z"/>
<path d="M1344 849 c-8 -14 21 -43 35 -35 6 4 11 16 11 27 0 21 -34 27 -46 8z"/>
<path d="M1610 841 c0 -27 19 -36 37 -18 18 18 9 37 -18 37 -12 0 -19 -7 -19
-19z"/>
<path d="M1478 838 c-8 -21 2 -38 22 -38 19 0 30 17 23 38 -3 6 -13 12 -23 12
-10 0 -20 -6 -22 -12z"/>
</g>
</svg>
