<?xml version="1.0" standalone="no"?>
<!DOCTYPE svg PUBLIC "-//W3C//DTD SVG 20010904//EN"
 "">
<svg version="1.0" xmlns="http://www.w3.org/2000/svg"
 width="305.000000pt" height="305.000000pt" viewBox="0 0 305.000000 305.000000"
 preserveAspectRatio="xMidYMid meet">
<metadata>
Created by potrace 1.16, written by Peter Selinger 2001-2019
</metadata>
<g transform="translate(0.000000,305.000000) scale(0.100000,-0.100000)"
fill="#000000" stroke="none">
<path d="M1530 1945 c0 -333 -2 -605 -5 -605 -4 0 -20 7 -37 16 -120 62 -283
59 -415 -10 -51 -26 -141 -114 -172 -170 -76 -132 -80 -301 -10 -438 30 -58
113 -143 173 -177 189 -107 427 -71 568 88 22 25 57 80 77 121 l36 75 3 633 3
633 147 -1 c81 -1 184 -1 230 0 l82 0 0 220 0 220 -340 0 -340 0 0 -605z"/>
</g>
</svg>
