<?xml version="1.0" standalone="no"?>
<!DOCTYPE svg PUBLIC "-//W3C//DTD SVG 20010904//EN"
 "http://www.w3.org/TR/2001/REC-SVG-20010904/DTD/svg10.dtd">
<svg version="1.0" xmlns="http://www.w3.org/2000/svg"
 width="511.000000pt" height="512.000000pt" viewBox="0 0 511.000000 512.000000"
 preserveAspectRatio="xMidYMid meet">
<metadata>
Created by potrace 1.16, written by Peter Selinger 2001-2019
</metadata>
<g transform="translate(0.000000,512.000000) scale(0.100000,-0.100000)"
fill="#000000" stroke="none">
<path d="M1057 5105 c-483 -81 -871 -430 -1024 -920 l-28 -90 0 -1535 0 -1535
28 -90 c153 -492 544 -841 1027 -920 140 -22 2837 -23 2977 0 474 77 871 422
1017 884 57 180 56 145 56 1661 0 1516 1 1481 -56 1661 -126 400 -443 717
-843 843 -181 57 -143 56 -1671 55 -1106 -1 -1422 -4 -1483 -14z m2925 -429
c364 -72 637 -354 688 -714 8 -54 10 -489 8 -1452 l-3 -1375 -28 -90 c-90
-288 -294 -492 -582 -582 l-90 -28 -1375 -3 c-963 -2 -1398 0 -1452 8 -308 44
-577 264 -679 556 -50 144 -49 111 -49 1557 0 875 4 1375 10 1417 57 356 330
638 685 705 108 20 2762 21 2867 1z"/>
<path d="M959 4242 c-39 -20 -62 -41 -84 -77 l-30 -48 -3 -469 c-2 -323 1
-482 9 -511 16 -62 91 -132 156 -146 28 -5 67 -7 88 -4 55 9 125 61 152 112
23 44 23 48 23 393 l0 348 348 0 c345 0 349 0 393 23 51 27 103 97 112 152 3
21 1 60 -4 88 -14 63 -84 140 -144 156 -26 7 -198 11 -501 11 l-462 0 -53 -28z"/>
<path d="M3115 4255 c-55 -19 -119 -92 -134 -151 -24 -93 26 -201 111 -243 43
-20 58 -21 391 -21 l347 0 0 -348 c0 -345 0 -349 23 -393 27 -51 97 -103 152
-112 21 -3 60 -1 88 4 65 14 140 84 156 146 8 29 11 188 9 511 l-3 469 -30 48
c-22 36 -45 57 -84 77 l-53 28 -467 0 c-373 -1 -474 -4 -506 -15z"/>
<path d="M996 2128 c-53 -15 -131 -91 -145 -143 -7 -26 -11 -198 -11 -501 l0
-462 28 -53 c20 -39 41 -62 77 -84 l48 -30 469 -3 c323 -2 482 1 511 9 62 16
132 91 146 156 5 28 7 67 4 88 -9 55 -61 125 -112 152 -44 23 -48 23 -392 23
l-348 0 -3 359 -3 359 -30 43 c-51 73 -154 110 -239 87z"/>
<path d="M3991 2130 c-52 -13 -112 -60 -138 -109 -23 -44 -23 -47 -23 -393 l0
-348 -348 0 c-345 0 -349 0 -393 -23 -53 -28 -103 -98 -113 -156 -15 -98 58
-216 151 -240 29 -8 188 -11 511 -9 l469 3 48 30 c36 22 57 45 77 84 l28 53 0
462 c0 294 -4 475 -11 499 -12 46 -67 109 -112 131 -43 20 -104 27 -146 16z"/>
</g>
</svg>
